<svg width="64" height="64" viewBox="0 0 64 64" fill="none" xmlns="http://www.w3.org/2000/svg">
<g clip-path="url(#clip0_119_432)">
<path d="M35.0066 50.1145L34.2107 52.047C34.0527 52.4297 33.6912 52.6887 33.2843 52.7061C33.0155 52.7164 32.7446 52.724 32.4708 52.724C23.1031 52.719 14.8148 46.0938 12.7611 36.965L9.57227 37.6871C10.7247 42.8075 13.6172 47.455 17.7174 50.7764C21.8652 54.1354 27.0902 55.9899 32.4356 56H32.4833C32.7972 56 33.1086 55.9925 33.4198 55.9798C35.0971 55.9095 36.596 54.8551 37.2364 53.2925L38.2757 50.7663L35.0066 50.1145Z" fill="url(#paint0_linear_119_432)"/>
<path d="M9.83352 38.7264C9.27947 36.6978 8.99914 34.6042 9 32.5013C9 22.8643 15.0334 14.0525 24.0147 10.5776L25.1922 13.6348C17.4615 16.6265 12.2691 24.208 12.2691 32.5013C12.268 34.3108 12.5087 36.1124 12.9847 37.8582L9.83352 38.7264Z" fill="url(#paint1_linear_119_432)"/>
<path d="M50.4362 23.1914C46.9411 16.4605 40.0615 12.2786 32.4864 12.2786C29.8023 12.2786 27.1938 12.7969 24.738 13.816L23.4854 10.7889C26.3401 9.60402 29.3681 9 32.4864 9C41.2868 9 49.2761 13.8562 53.336 21.6766L50.4362 23.1914Z" fill="url(#paint2_linear_119_432)"/>
<path d="M25.473 27.6526C27.3688 27.6526 28.913 28.6666 29.7063 30.4355L29.7691 30.5739L32.9526 29.4894L32.8848 29.3258C31.652 26.314 28.8123 24.4419 25.4731 24.4419C23.1255 24.4419 21.2173 25.1968 19.6404 26.7467C18.0738 28.2867 17.2803 30.224 17.2803 32.5062C17.2803 34.7683 18.0738 36.6959 19.6404 38.2357C21.2173 39.7857 23.1255 40.5405 25.4731 40.5405C28.8123 40.5405 31.652 38.6684 32.8848 35.6591L32.9528 35.4957L29.7641 34.4085L29.7037 34.552C28.9932 36.2907 27.4113 37.3298 25.473 37.3298C24.1524 37.3298 23.0376 36.867 22.1536 35.956C21.26 35.0325 20.808 33.8725 20.808 32.5088C20.808 31.135 21.2499 29.9976 22.1538 29.0315C23.035 28.1154 24.1522 27.6526 25.473 27.6526Z" fill="#A9D9D0"/>
<path d="M45.4146 24.7388L40.8776 36.2554L36.3104 24.7388H32.5742L38.9794 40.4575L34.4223 51.5438L37.6888 52.1956L48.9447 24.7388H45.4146Z" fill="#A9D9D0"/>
<path d="M53.3356 21.6766C54.9885 24.8965 55.9999 28.6785 55.9999 32.5496C55.9999 41.5824 50.9197 49.4248 43.4691 53.3586L41.8594 50.5041C48.32 47.1348 52.7331 40.3591 52.7331 32.5496C52.7331 29.1604 51.9045 25.9969 50.4358 23.1912L53.3356 21.6766Z" fill="url(#paint3_linear_119_432)"/>
</g>
<defs>
<linearGradient id="paint0_linear_119_432" x1="190.978" y1="875.038" x2="2434.8" y2="1474.16" gradientUnits="userSpaceOnUse">
<stop stop-color="#4FB38D"/>
<stop offset="1" stop-color="#97DEC0"/>
</linearGradient>
<linearGradient id="paint1_linear_119_432" x1="888.206" y1="777.97" x2="679.356" y2="2811.15" gradientUnits="userSpaceOnUse">
<stop stop-color="#4FB38D"/>
<stop offset="1" stop-color="#315C55"/>
</linearGradient>
<linearGradient id="paint2_linear_119_432" x1="438.679" y1="718.571" x2="2094.73" y2="1022.17" gradientUnits="userSpaceOnUse">
<stop stop-color="#97DEC0"/>
<stop offset="1" stop-color="#4FB38D"/>
</linearGradient>
<linearGradient id="paint3_linear_119_432" x1="803.471" y1="1000.4" x2="-99.5912" y2="2691.16" gradientUnits="userSpaceOnUse">
<stop stop-color="#97DEC0"/>
<stop offset="1" stop-color="#FFFFF0" stop-opacity="0"/>
</linearGradient>
<clipPath id="clip0_119_432">
<rect width="47" height="47" fill="white" transform="translate(9 9)"/>
</clipPath>
</defs>
</svg>
