<svg width="64" height="64" viewBox="0 0 64 64" fill="none" xmlns="http://www.w3.org/2000/svg">
<path d="M50.8204 32.1775C50.8183 30.9442 50.4089 29.7463 49.6562 28.7707C48.9036 27.7951 47.85 27.0968 46.6598 26.7846L52 11H25.5365L30.891 26.8347C29.7351 27.1725 28.7195 27.8768 27.9964 28.8419C27.2734 29.8071 26.8819 30.9812 26.8805 32.1882C26.8826 33.0782 27.0967 33.9547 27.5048 34.745C27.913 35.5353 28.5034 36.2165 29.2271 36.7319C28.657 37.5377 28.008 38.2843 27.2898 38.9607C25.9686 40.2221 24.4226 41.2232 22.7323 41.9116C21.2418 40.9029 20.5966 39.1238 21.1792 37.5292C22.4472 37.1344 23.5323 36.2976 24.2382 35.1702C24.9441 34.0429 25.2241 32.6995 25.0275 31.3831C24.831 30.0667 24.1709 28.8644 23.1667 27.9936C22.1625 27.1229 20.8806 26.6412 19.5529 26.6359C18.0779 26.6378 16.6638 27.226 15.6209 28.2716C14.5779 29.3171 13.9911 30.7347 13.9892 32.2133C13.9892 33.7327 14.6094 35.1266 15.6031 36.1227C15.5173 36.2965 15.4297 36.4721 15.3422 36.6584C14.5111 38.3767 13.5674 40.3188 13.2064 42.4975C12.4862 46.8548 13.6657 50.3521 16.511 52.3319C18.0509 53.4207 19.89 54.0035 21.7744 54C25.0397 54 28.355 52.357 31.5595 50.7624C33.8453 49.6301 36.2045 48.4476 38.5261 47.8743C39.384 47.6629 40.2776 47.5392 41.2212 47.4013C43.1336 47.1272 45.1084 46.8423 46.8832 45.8067C47.8967 45.2245 48.7709 44.4271 49.4445 43.4704C50.1182 42.5138 50.575 41.421 50.7829 40.2687C51.0939 38.4877 50.7829 36.6961 49.9894 35.1266C50.522 34.2666 50.8204 33.2614 50.8204 32.1775ZM48.3987 32.1775C48.3987 33.9064 46.9958 35.3129 45.2711 35.3129C44.6216 35.3111 43.9888 35.107 43.4601 34.7288C42.9314 34.3506 42.533 33.8171 42.32 33.202C42.1071 32.5869 42.0901 31.9207 42.2713 31.2955C42.4526 30.6702 42.8233 30.117 43.3319 29.7122L43.3445 29.6996C43.4445 29.6244 43.5553 29.5491 43.6662 29.4757C43.6662 29.4757 43.6805 29.4757 43.6805 29.4631C43.7305 29.438 43.7788 29.4004 43.8288 29.3735C43.8413 29.3735 43.8538 29.3628 43.8663 29.3628C43.9164 29.3377 43.9789 29.3126 44.0397 29.2875C44.1022 29.2625 44.1648 29.2392 44.2148 29.2141C44.2273 29.2141 44.2381 29.2015 44.2506 29.2015C44.3006 29.189 44.3507 29.1639 44.4007 29.1514C44.4132 29.1514 44.4365 29.1388 44.4507 29.1388C44.5115 29.1263 44.5616 29.1137 44.6241 29.103H44.6366L44.8225 29.0636C44.835 29.0636 44.8582 29.0636 44.8725 29.051C44.9226 29.051 44.9708 29.0385 45.0209 29.0385H45.0834C45.146 29.0385 45.2085 29.026 45.2818 29.026H45.4427C45.4927 29.026 45.532 29.026 45.5803 29.0385H45.6053C45.7036 29.051 45.8037 29.0636 45.9038 29.0887C46.6088 29.2401 47.2409 29.629 47.6948 30.1907C48.1488 30.7523 48.3972 31.4546 48.3987 32.1775ZM29.0019 13.4904H48.5364L44.0522 26.7487C43.8663 26.7846 43.6805 26.8473 43.4946 26.91L38.7763 17.2619L34.0437 26.8473C33.8578 26.7864 33.6577 26.7487 33.4593 26.7111L29.0019 13.4904ZM37.8809 31.0935C37.6524 29.9443 37.0653 28.8977 36.2045 28.105L38.7745 22.902L41.3696 28.2179C40.6011 28.9883 40.0417 29.9737 39.8183 31.0935H37.8809ZM31.6596 29.1263C31.7203 29.1137 31.7704 29.1012 31.8329 29.0905H31.8687C31.9205 29.0761 31.9687 29.0761 32.0188 29.0636H32.0688C32.1189 29.0636 32.1564 29.051 32.2047 29.051H32.689C32.739 29.051 32.7766 29.0636 32.8141 29.0636C32.8391 29.0636 32.8498 29.0636 32.8767 29.0761C32.9249 29.0887 32.9624 29.0887 33.0125 29.1012C33.025 29.1012 33.0375 29.1012 33.0625 29.1137L33.2359 29.1496H33.2484C33.2984 29.1639 33.3485 29.1765 33.3967 29.2015C33.4092 29.2015 33.4218 29.2141 33.4468 29.2141C33.4843 29.2266 33.5344 29.2392 33.5719 29.2625C33.5844 29.2625 33.5969 29.275 33.6076 29.275C33.6577 29.3001 33.7077 29.3126 33.7578 29.3377H33.7703C33.8277 29.3594 33.8818 29.389 33.9311 29.4255H33.9436C33.9937 29.4506 34.0437 29.4864 34.0938 29.5115C34.1063 29.5115 34.1063 29.524 34.117 29.524C34.167 29.5491 34.2064 29.5867 34.2546 29.6118L34.2671 29.6244C34.4155 29.7355 34.5531 29.8609 34.6889 29.9845L34.7014 29.997C35.2549 30.5815 35.5621 31.3573 35.5593 32.1632C35.5318 32.9768 35.1901 33.748 34.6062 34.3139C34.0224 34.8798 33.242 35.1961 32.4298 35.1961C31.6177 35.1961 30.8373 34.8798 30.2535 34.3139C29.6696 33.748 29.3278 32.9768 29.3004 32.1632C29.2985 31.4655 29.5298 30.7872 29.9574 30.2367C30.385 29.6863 30.9843 29.2953 31.6596 29.1263ZM19.4385 29.0385C21.1649 29.0385 22.5679 30.4467 22.5679 32.1757C22.5679 33.9047 21.1649 35.3129 19.4403 35.3129C17.7156 35.3129 16.309 33.9064 16.309 32.1775C16.309 30.4485 17.7138 29.0385 19.4385 29.0385ZM48.3255 39.8333C48.1842 40.6298 47.8694 41.3852 47.4036 42.0458C46.9377 42.7064 46.3323 43.2558 45.6303 43.6549C44.2756 44.4397 42.6117 44.6887 40.8602 44.9377C39.8754 45.0642 38.8972 45.2382 37.9291 45.4591C35.3466 46.0951 32.8641 47.3404 30.455 48.5354C27.3738 50.0655 24.4677 51.5096 21.7744 51.5096C20.3933 51.5182 19.0451 51.0865 17.9247 50.2769C15.192 48.3849 15.3279 44.8374 15.6513 42.8952C15.9498 41.0767 16.7809 39.3728 17.5762 37.7406C17.6262 37.6421 17.6638 37.5543 17.7138 37.4539C17.9855 37.5543 18.2714 37.6295 18.5699 37.6797C18.0981 40.3188 19.4385 43.0439 22.0478 44.3895L22.5197 44.6385L23.0272 44.4522C25.2005 43.68 27.2129 42.4222 28.9894 40.7417C29.9704 39.8246 30.8376 38.7923 31.572 37.6672C31.8579 37.7155 32.1439 37.7281 32.4298 37.7281C33.6593 37.7252 34.8532 37.3147 35.8256 36.5606C36.798 35.8065 37.4942 34.7511 37.8058 33.5589H39.8915C40.2011 34.7529 40.8973 35.8101 41.8709 36.5647C42.8445 37.3193 44.0404 37.7285 45.2711 37.7281C46.3005 37.7281 47.2549 37.4414 48.077 36.9577C48.3987 37.8893 48.4988 38.8622 48.3255 39.8333Z" fill="#A9D9D0"/>
</svg>
