<svg width="174" height="78" viewBox="0 0 174 78" fill="none" xmlns="http://www.w3.org/2000/svg">
<path d="M3.48 29.36C2.41333 29.36 1.65333 29.04 1.2 28.4C0.746667 27.7333 0.613333 26.8267 0.8 25.68L4.32 3.56C4.48 2.52 4.85333 1.74667 5.44 1.24C6.02667 0.706665 6.82667 0.439998 7.84 0.439998C8.88 0.439998 9.61333 0.759998 10.04 1.4C10.4933 2.04 10.6267 2.94667 10.44 4.12L6.92 26.2C6.76 27.24 6.4 28.0267 5.84 28.56C5.28 29.0933 4.49333 29.36 3.48 29.36ZM19.475 29.44C18.0083 29.44 16.715 29.0933 15.595 28.4C14.5017 27.68 13.6483 26.6933 13.035 25.44C12.4483 24.16 12.155 22.6533 12.155 20.92C12.155 18.6267 12.555 16.5867 13.355 14.8C14.155 12.9867 15.3017 11.56 16.795 10.52C18.2883 9.48 20.035 8.96 22.035 8.96C23.5017 8.96 24.7817 9.30667 25.875 10C26.995 10.6667 27.7817 11.6533 28.235 12.96L27.915 12.92L29.395 3.36C29.555 2.37333 29.9283 1.64 30.515 1.16C31.1017 0.679998 31.8883 0.439998 32.875 0.439998C33.835 0.439998 34.5283 0.746665 34.955 1.36C35.3817 1.94667 35.515 2.8 35.355 3.92L31.795 26.28C31.6617 27.2933 31.3017 28.0667 30.715 28.6C30.1283 29.1067 29.3417 29.36 28.355 29.36C27.4217 29.36 26.7417 29.04 26.315 28.4C25.915 27.7333 25.8083 26.8533 25.995 25.76L26.275 24V25.6C25.5283 26.7733 24.5683 27.7067 23.395 28.4C22.2217 29.0933 20.915 29.44 19.475 29.44ZM21.915 24.92C22.9817 24.92 23.8883 24.6 24.635 23.96C25.3817 23.32 25.955 22.4667 26.355 21.4C26.755 20.3333 26.955 19.12 26.955 17.76C26.955 16.3733 26.6217 15.32 25.955 14.6C25.315 13.8533 24.4217 13.48 23.275 13.48C22.2083 13.48 21.3017 13.7867 20.555 14.4C19.8083 15.0133 19.235 15.8667 18.835 16.96C18.435 18.0267 18.235 19.24 18.235 20.6C18.235 21.9867 18.555 23.0533 19.195 23.8C19.8617 24.5467 20.7683 24.92 21.915 24.92ZM42.8491 29.44C41.6224 29.44 40.5024 29.16 39.4891 28.6C38.5024 28.0133 37.7024 27.2533 37.0891 26.32C36.5024 25.3867 36.2091 24.3733 36.2091 23.28C36.2091 21.8933 36.5957 20.76 37.3691 19.88C38.1424 19 39.3424 18.36 40.9691 17.96C42.5957 17.5333 44.6757 17.32 47.2091 17.32H50.3691L49.8891 20.44H47.3291C46.0224 20.44 44.9824 20.52 44.2091 20.68C43.4357 20.8133 42.8757 21.0667 42.5291 21.44C42.1824 21.7867 42.0091 22.2667 42.0091 22.88C42.0091 23.68 42.2757 24.3067 42.8091 24.76C43.3691 25.1867 44.0624 25.4 44.8891 25.4C45.6624 25.4 46.3424 25.24 46.9291 24.92C47.5424 24.6 48.0491 24.1467 48.4491 23.56C48.8757 22.9733 49.1424 22.28 49.2491 21.48L50.0091 16.8C50.1957 15.7067 49.9957 14.8667 49.4091 14.28C48.8491 13.6933 47.8891 13.4 46.5291 13.4C45.7024 13.4 44.8891 13.48 44.0891 13.64C43.3157 13.8 42.5024 14.0667 41.6491 14.44C41.0357 14.6533 40.5024 14.6933 40.0491 14.56C39.5957 14.4267 39.2224 14.1867 38.9291 13.84C38.6624 13.4933 38.5291 13.0933 38.5291 12.64C38.5557 12.16 38.7291 11.7067 39.0491 11.28C39.3691 10.8533 39.8891 10.4933 40.6091 10.2C41.7557 9.74667 42.9024 9.42667 44.0491 9.24C45.1957 9.05333 46.3024 8.96 47.3691 8.96C49.6091 8.96 51.3691 9.37333 52.6491 10.2C53.9291 11.0267 54.7957 12.1467 55.2491 13.56C55.7024 14.9467 55.7824 16.5067 55.4891 18.24L54.2091 26.36C54.0757 27.3467 53.7291 28.0933 53.1691 28.6C52.6091 29.1067 51.8757 29.36 50.9691 29.36C50.0891 29.36 49.4357 29.08 49.0091 28.52C48.5824 27.96 48.4624 27.1333 48.6491 26.04L48.9691 23.92L49.1691 25C48.7691 26.0133 48.2357 26.8533 47.5691 27.52C46.9291 28.1867 46.2091 28.68 45.4091 29C44.6091 29.2933 43.7557 29.44 42.8491 29.44ZM61.3147 29.28C60.3814 29.28 59.688 28.9733 59.2347 28.36C58.808 27.72 58.688 26.8533 58.8747 25.76L61.0347 12.04C61.1947 11.0267 61.568 10.28 62.1547 9.8C62.7414 9.29333 63.5147 9.04 64.4747 9.04C65.3814 9.04 66.048 9.32 66.4747 9.88C66.928 10.4133 67.0614 11.2133 66.8747 12.28L66.5547 14.4L66.4747 13.08C67.1414 11.7467 68.0747 10.7333 69.2747 10.04C70.4747 9.32 71.888 8.96 73.5147 8.96C74.9547 8.96 76.168 9.25333 77.1547 9.84C78.1414 10.4267 78.8347 11.3333 79.2347 12.56C79.6614 13.7867 79.728 15.3733 79.4347 17.32L77.9947 26.28C77.8614 27.2933 77.5014 28.0533 76.9147 28.56C76.328 29.04 75.528 29.28 74.5147 29.28C73.5814 29.28 72.888 28.9733 72.4347 28.36C72.008 27.72 71.8747 26.8533 72.0347 25.76L73.3547 17.44C73.568 16.16 73.4747 15.2133 73.0747 14.6C72.7014 13.96 71.9814 13.64 70.9147 13.64C69.5547 13.64 68.4614 14.08 67.6347 14.96C66.808 15.8133 66.2747 17 66.0347 18.52L64.7947 26.28C64.5014 28.28 63.3414 29.28 61.3147 29.28Z" fill="#027373"/>
<path d="M18.76 77C17.448 77 16.472 76.632 15.832 75.896C15.192 75.16 14.984 74.136 15.208 72.824L19.336 46.76C19.528 45.576 19.976 44.68 20.68 44.072C21.384 43.464 22.328 43.16 23.512 43.16H31.336C36.84 43.16 41.096 44.456 44.104 47.048C47.112 49.608 48.616 53.192 48.616 57.8C48.616 60.52 48.2 63.048 47.368 65.384C46.568 67.72 45.352 69.752 43.72 71.48C42.088 73.208 40.056 74.568 37.624 75.56C35.192 76.52 32.36 77 29.128 77H18.76ZM22.936 70.904H29.224C31.208 70.904 32.936 70.584 34.408 69.944C35.88 69.304 37.08 68.408 38.008 67.256C38.968 66.104 39.672 64.744 40.12 63.176C40.6 61.576 40.84 59.816 40.84 57.896C40.84 55.112 40.04 52.984 38.44 51.512C36.872 50.008 34.504 49.256 31.336 49.256H26.392L22.936 70.904ZM59.2439 77.528C57.7719 77.528 56.4279 77.192 55.2119 76.52C54.0279 75.816 53.0679 74.904 52.3319 73.784C51.6279 72.664 51.2759 71.448 51.2759 70.136C51.2759 68.472 51.7399 67.112 52.6679 66.056C53.5959 65 55.0359 64.232 56.9879 63.752C58.9399 63.24 61.4359 62.984 64.4759 62.984H68.2679L67.6919 66.728H64.6199C63.0519 66.728 61.8039 66.824 60.8759 67.016C59.9479 67.176 59.2759 67.48 58.8599 67.928C58.4439 68.344 58.2359 68.92 58.2359 69.656C58.2359 70.616 58.5559 71.368 59.1959 71.912C59.8679 72.424 60.6999 72.68 61.6919 72.68C62.6199 72.68 63.4359 72.488 64.1399 72.104C64.8759 71.72 65.4839 71.176 65.9639 70.472C66.4759 69.768 66.7959 68.936 66.9239 67.976L67.8359 62.36C68.0599 61.048 67.8199 60.04 67.1159 59.336C66.4439 58.632 65.2919 58.28 63.6599 58.28C62.6679 58.28 61.6919 58.376 60.7319 58.568C59.8039 58.76 58.8279 59.08 57.8039 59.528C57.0679 59.784 56.4279 59.832 55.8839 59.672C55.3399 59.512 54.8919 59.224 54.5399 58.808C54.2199 58.392 54.0599 57.912 54.0599 57.368C54.0919 56.792 54.2999 56.248 54.6839 55.736C55.0679 55.224 55.6919 54.792 56.5559 54.44C57.9319 53.896 59.3079 53.512 60.6839 53.288C62.0599 53.064 63.3879 52.952 64.6679 52.952C67.3559 52.952 69.4679 53.448 71.0039 54.44C72.5399 55.432 73.5799 56.776 74.1239 58.472C74.6679 60.136 74.7639 62.008 74.4119 64.088L72.8759 73.832C72.7159 75.016 72.2999 75.912 71.6279 76.52C70.9559 77.128 70.0759 77.432 68.9879 77.432C67.9319 77.432 67.1479 77.096 66.6359 76.424C66.1239 75.752 65.9799 74.76 66.2039 73.448L66.5879 70.904L66.8279 72.2C66.3479 73.416 65.7079 74.424 64.9079 75.224C64.1399 76.024 63.2759 76.616 62.3159 77C61.3559 77.352 60.3319 77.528 59.2439 77.528ZM81.4026 77.336C80.2826 77.336 79.4506 76.968 78.9066 76.232C78.3946 75.464 78.2506 74.424 78.4746 73.112L81.0666 56.648C81.2586 55.432 81.7066 54.536 82.4106 53.96C83.1146 53.352 84.0426 53.048 85.1946 53.048C86.2826 53.048 87.0826 53.384 87.5946 54.056C88.1386 54.696 88.2986 55.656 88.0746 56.936L87.6906 59.48L87.5946 57.896C88.3946 56.296 89.5146 55.08 90.9546 54.248C92.3946 53.384 94.0906 52.952 96.0426 52.952C97.7706 52.952 99.2266 53.304 100.411 54.008C101.595 54.712 102.427 55.8 102.907 57.272C103.419 58.744 103.499 60.648 103.147 62.984L101.419 73.736C101.259 74.952 100.827 75.864 100.123 76.472C99.4186 77.048 98.4586 77.336 97.2426 77.336C96.1226 77.336 95.2906 76.968 94.7466 76.232C94.2346 75.464 94.0746 74.424 94.2666 73.112L95.8506 63.128C96.1066 61.592 95.9946 60.456 95.5146 59.72C95.0666 58.952 94.2026 58.568 92.9226 58.568C91.2906 58.568 89.9786 59.096 88.9866 60.152C87.9946 61.176 87.3546 62.6 87.0666 64.424L85.5786 73.736C85.2266 76.136 83.8346 77.336 81.4026 77.336ZM109.902 77.432C108.782 77.432 107.95 77.064 107.406 76.328C106.894 75.56 106.75 74.52 106.974 73.208L109.614 56.648C109.774 55.432 110.206 54.536 110.91 53.96C111.614 53.352 112.574 53.048 113.79 53.048C114.91 53.048 115.726 53.416 116.238 54.152C116.75 54.888 116.91 55.928 116.718 57.272L114.078 73.832C113.886 75.016 113.454 75.912 112.782 76.52C112.11 77.128 111.15 77.432 109.902 77.432ZM114.462 49.112C113.182 49.112 112.222 48.808 111.582 48.2C110.974 47.592 110.734 46.728 110.862 45.608C111.054 44.36 111.55 43.432 112.35 42.824C113.15 42.184 114.238 41.864 115.614 41.864C116.894 41.864 117.854 42.168 118.494 42.776C119.134 43.384 119.358 44.264 119.166 45.416C119.006 46.632 118.526 47.56 117.726 48.2C116.926 48.808 115.838 49.112 114.462 49.112ZM122.793 77.336C121.673 77.336 120.841 76.968 120.297 76.232C119.785 75.464 119.641 74.424 119.865 73.112L122.457 56.648C122.649 55.432 123.097 54.536 123.801 53.96C124.505 53.352 125.433 53.048 126.585 53.048C127.673 53.048 128.473 53.384 128.985 54.056C129.529 54.696 129.689 55.656 129.465 56.936L129.081 59.48L128.985 57.896C129.785 56.296 130.905 55.08 132.345 54.248C133.785 53.384 135.481 52.952 137.433 52.952C139.161 52.952 140.617 53.304 141.801 54.008C142.985 54.712 143.817 55.8 144.297 57.272C144.809 58.744 144.889 60.648 144.537 62.984L142.809 73.736C142.649 74.952 142.217 75.864 141.513 76.472C140.809 77.048 139.849 77.336 138.633 77.336C137.513 77.336 136.681 76.968 136.137 76.232C135.625 75.464 135.465 74.424 135.657 73.112L137.241 63.128C137.497 61.592 137.385 60.456 136.905 59.72C136.457 58.952 135.593 58.568 134.313 58.568C132.681 58.568 131.369 59.096 130.377 60.152C129.385 61.176 128.745 62.6 128.457 64.424L126.969 73.736C126.617 76.136 125.225 77.336 122.793 77.336ZM159.98 77.528C157.548 77.528 155.468 77.08 153.74 76.184C152.012 75.288 150.684 74.024 149.756 72.392C148.86 70.76 148.412 68.856 148.412 66.68C148.412 64.504 148.764 62.568 149.468 60.872C150.204 59.144 151.196 57.704 152.444 56.552C153.724 55.368 155.164 54.472 156.764 53.864C158.396 53.256 160.108 52.952 161.9 52.952C164.332 52.952 166.412 53.4 168.14 54.296C169.868 55.16 171.196 56.408 172.124 58.04C173.052 59.672 173.516 61.576 173.516 63.752C173.516 65.96 173.148 67.912 172.412 69.608C171.676 71.304 170.668 72.744 169.388 73.928C168.14 75.112 166.7 76.008 165.068 76.616C163.468 77.224 161.772 77.528 159.98 77.528ZM160.172 72.104C161.452 72.104 162.524 71.736 163.388 71C164.284 70.232 164.972 69.208 165.452 67.928C165.964 66.616 166.22 65.144 166.22 63.512C166.22 61.848 165.82 60.584 165.02 59.72C164.22 58.824 163.132 58.376 161.756 58.376C160.508 58.376 159.42 58.744 158.492 59.48C157.596 60.216 156.908 61.24 156.428 62.552C155.948 63.832 155.708 65.288 155.708 66.92C155.708 68.584 156.092 69.864 156.86 70.76C157.66 71.656 158.764 72.104 160.172 72.104Z" fill="#027373"/>
</svg>
