<svg width="64" height="64" viewBox="0 0 64 64" fill="none" xmlns="http://www.w3.org/2000/svg">
<path d="M49.7187 23.463L47.8906 22.8536C47.8906 22.4474 48.0937 22.0411 48.0937 21.6349C49.5156 14.9317 48.5 9.44737 45.4531 7.61925C42.4062 5.99425 37.5312 7.61925 32.6562 11.8849C32.25 12.2911 31.6406 12.6974 31.2344 13.1036C30.8281 12.9005 30.625 12.4942 30.2187 12.2911C25.3437 7.82237 20.2656 5.99425 17.2187 7.82237C14.1719 9.44737 13.3594 14.7286 14.5781 21.0255C14.7812 21.6349 14.7812 22.2442 14.9844 22.8536C14.1719 23.0567 13.5625 23.2599 12.9531 23.463C6.85937 25.4942 3 28.9474 3 32.1974C3 35.6505 7.0625 39.3067 13.3594 41.338C13.7656 41.5411 14.375 41.7442 14.9844 41.7442C14.7812 42.3536 14.5781 43.1661 14.5781 43.7755C13.3594 50.0724 14.375 54.9474 17.2187 56.7755C20.2656 58.6036 25.3437 56.7755 30.4219 52.3067C30.8281 51.9005 31.2344 51.4942 31.6406 51.2911C32.0469 51.6974 32.6562 52.3067 33.2656 52.713C38.1406 56.9786 42.8125 58.6036 45.8594 56.7755C48.9062 54.9474 49.9219 49.6661 48.7031 43.1661C48.7031 42.7599 48.5 42.1505 48.2969 41.5411C48.7031 41.338 49.1094 41.338 49.3125 41.1349C55.8125 38.9005 60.0781 35.4474 60.0781 31.9942C59.875 28.9474 55.8125 25.6974 49.7187 23.463ZM34.4844 13.9161C38.75 10.2599 42.6094 8.838 44.4375 9.85362C46.2656 10.8692 47.0781 15.338 45.8594 21.2286C45.8594 21.6349 45.6562 22.0411 45.6562 22.4474C43.2187 21.838 40.5781 21.4317 38.1406 21.2286C36.7187 19.1974 35.0937 17.1661 33.2656 15.1349L34.4844 13.9161ZM19.8594 35.2442C20.4687 36.2599 20.875 37.2755 21.4844 38.2911C22.0937 39.3067 22.7031 40.3224 23.3125 41.1349C21.4844 40.9317 19.8594 40.7286 18.0312 40.3224C18.4375 38.6974 19.0469 37.0724 19.8594 35.2442ZM19.8594 29.5567C19.0469 27.9317 18.6406 26.3067 18.0312 24.6817C19.6562 24.2755 21.4844 24.0724 23.1094 23.8692C22.5 24.8849 21.8906 25.6974 21.2812 26.713C20.875 27.5255 20.2656 28.5411 19.8594 29.5567ZM21.0781 32.4005C21.8906 30.7755 22.7031 29.3536 23.5156 27.7286C24.3281 26.3067 25.3437 24.6817 26.3594 23.2599C27.9844 23.0567 29.8125 23.0567 31.6406 23.0567C33.4687 23.0567 35.0937 23.0567 36.9219 23.2599C37.9375 24.6817 38.75 26.1036 39.5625 27.7286C40.375 29.1505 41.1875 30.7755 42 32.4005C41.1875 34.0255 40.375 35.4474 39.5625 37.0724C38.75 38.4942 37.7344 40.1192 36.9219 41.5411C35.2969 41.7442 33.4687 41.7442 31.6406 41.7442C29.8125 41.7442 28.1875 41.7442 26.5625 41.5411C25.5469 40.1192 24.7344 38.6974 23.7187 37.0724C22.7031 35.4474 21.8906 34.0255 21.0781 32.4005ZM41.3906 38.2911C42 37.2755 42.6094 36.2599 43.0156 35.2442C43.8281 36.8692 44.4375 38.4942 44.8437 40.3224C43.0156 40.7286 41.3906 40.9317 39.5625 41.1349C40.375 40.1192 40.9844 39.1036 41.3906 38.2911ZM43.0156 29.5567C42.4062 28.5411 42 27.5255 41.3906 26.5099C40.7812 25.4942 40.1719 24.6817 39.7656 23.6661C41.5937 23.8692 43.2187 24.2755 45.0469 24.4786C44.4375 26.3067 43.8281 27.9317 43.0156 29.5567ZM31.4375 16.7599C32.6562 17.9786 33.6719 19.4005 34.6875 20.8224C32.4531 20.6192 30.2187 20.6192 27.9844 20.8224C29.2031 19.4005 30.4219 17.9786 31.4375 16.7599ZM18.4375 9.85362C20.2656 8.838 24.5312 10.2599 29 14.3224L29.8125 15.1349C27.9844 16.963 26.3594 18.9942 24.9375 21.2286C22.2969 21.4317 19.8594 21.838 17.4219 22.4474C17.2187 21.838 17.2187 21.2286 17.0156 20.6192C15.7969 15.1349 16.6094 10.8692 18.4375 9.85362ZM15.5937 39.713C15.1875 39.5099 14.5781 39.5099 14.1719 39.3067C11.3281 38.2911 9.09375 37.0724 7.46875 35.8536C6.04687 34.6349 5.4375 33.4161 5.4375 32.4005C5.4375 30.3692 8.48438 27.7286 13.7656 25.9005C14.375 25.6974 14.9844 25.4942 15.7969 25.2911C16.4062 27.7286 17.2187 30.1661 18.4375 32.4005C17.2187 34.838 16.4062 37.2755 15.5937 39.713ZM28.7969 50.8849C26.5625 52.9161 24.3281 54.1349 22.5 54.9474C20.6719 55.5567 19.4531 55.5567 18.4375 55.1505C16.6094 54.1349 15.7969 50.0724 16.8125 44.7911C17.0156 43.9786 17.2187 43.3692 17.2187 42.5567C19.6562 43.1661 22.2969 43.5724 24.9375 43.5724C26.3594 45.6036 27.9844 47.6349 29.8125 49.6661C29.4062 50.0724 29.2031 50.4786 28.7969 50.8849ZM31.4375 48.0411C30.2187 46.8224 29.2031 45.4005 27.9844 43.9786H34.6875C33.875 45.4005 32.6562 46.8224 31.4375 48.0411ZM46.2656 51.4942C45.8594 53.3224 45.25 54.5411 44.4375 54.9474C42.6094 55.963 38.75 54.5411 34.6875 51.088C34.2812 50.6817 33.6719 50.2755 33.2656 49.8692C34.8906 48.0411 36.5156 46.0099 37.9375 43.7755C40.5781 43.5724 43.0156 43.1661 45.6562 42.5567C45.8594 42.963 45.8594 43.5724 46.0625 43.9786C46.6719 46.8224 46.6719 49.463 46.2656 51.4942ZM48.2969 39.3067C47.8906 39.3067 47.6875 39.5099 47.2812 39.5099C46.4687 37.0724 45.4531 34.6349 44.4375 32.1974C45.4531 29.963 46.4687 27.5255 47.2812 25.088C47.8906 25.2911 48.5 25.4942 48.9062 25.6974C54.1875 27.5255 57.4375 30.1661 57.4375 32.1974C57.4375 34.6349 53.9844 37.4786 48.2969 39.3067Z" fill="#A9D9D0"/>
<path d="M31.4375 37.4786C32.4531 37.4786 33.4688 37.2755 34.2812 36.6661C35.0938 36.0567 35.7031 35.2442 36.1094 34.4317C36.5156 33.4161 36.5156 32.4005 36.3125 31.3849C36.1094 30.3692 35.7031 29.5567 34.8906 28.7442C34.2813 27.9317 33.2656 27.5255 32.25 27.3224C31.2344 27.1192 30.2188 27.3224 29.2031 27.5255C28.1875 27.9317 27.375 28.5411 26.9688 29.3536C26.3594 30.1661 26.1562 31.1817 26.1562 32.1974C26.1562 32.8067 26.3594 33.6192 26.5625 34.2286C26.7656 34.838 27.1719 35.4474 27.5781 35.8536C27.9844 36.2599 28.5938 36.6661 29.2031 36.8693C30.0156 37.2755 30.8281 37.4786 31.4375 37.4786Z" fill="#A9D9D0"/>
</svg>
