<svg width="64" height="64" viewBox="0 0 64 64" fill="none" xmlns="http://www.w3.org/2000/svg">
<path d="M45.1155 18.5555C42.7899 11.7233 37.7893 7 32 7C23.9863 7 17.4893 14.6035 17.4893 25.7661C17.4893 31.4167 22.0594 39.4217 24.7461 43.0993" stroke="#A9D9D0" stroke-width="2" stroke-linecap="round" stroke-linejoin="round"/>
<path d="M10.9426 32.9391C6.15864 38.3615 4.54666 45.029 7.44419 50.0152C11.451 56.9196 22.2872 58.1936 32.0024 52.6152C36.9222 49.787 40.3079 42.9028 42.1597 38.7544" stroke="#A9D9D0" stroke-width="2" stroke-linecap="round" stroke-linejoin="round"/>
<path d="M40.7061 56.0818C47.96 56.0818 53.7724 54.8165 56.5573 50.0152C60.5641 43.1108 55.9362 32.9911 46.218 27.4127C41.3012 24.5845 33.6312 23.845 29.0957 24.3216" stroke="#A9D9D0" stroke-width="2" stroke-linecap="round" stroke-linejoin="round"/>
<path d="M27.6462 26.8234C29.0328 27.6208 30.8095 27.147 31.6097 25.7661C31.9916 25.1025 32.0945 24.3144 31.8957 23.575C31.6969 22.8357 31.2127 22.2054 30.5495 21.8228C29.8829 21.4388 29.0913 21.3344 28.348 21.5326C27.6047 21.7307 26.9701 22.2153 26.5831 22.8801C26.2014 23.5441 26.099 24.3324 26.2983 25.0719C26.4977 25.8113 26.9825 26.4413 27.6462 26.8234ZM21.8887 43.1109C21.8887 43.877 22.193 44.6118 22.7348 45.1536C23.2766 45.6954 24.0114 45.9997 24.7775 45.9997C25.5437 45.9997 26.2785 45.6954 26.8203 45.1536C27.362 44.6118 27.6664 43.877 27.6664 43.1109C27.6664 42.3447 27.362 41.6099 26.8203 41.0681C26.2785 40.5264 25.5437 40.222 24.7775 40.222C24.0114 40.222 23.2766 40.5264 22.7348 41.0681C22.193 41.6099 21.8887 42.3447 21.8887 43.1109ZM39.2219 38.7776C39.2219 39.5437 39.5262 40.2785 40.068 40.8203C40.6098 41.3621 41.3446 41.6664 42.1107 41.6664C42.8769 41.6664 43.6117 41.3621 44.1535 40.8203C44.6952 40.2785 44.9996 39.5437 44.9996 38.7776C44.9996 38.0114 44.6952 37.2766 44.1535 36.7348C43.6117 36.1931 42.8769 35.8887 42.1107 35.8887C41.3446 35.8887 40.6098 36.1931 40.068 36.7348C39.5262 37.2766 39.2219 38.0114 39.2219 38.7776Z" stroke="#A9D9D0" stroke-width="2" stroke-linecap="round" stroke-linejoin="round"/>
</svg>
