<svg
    width="94"
    height="124"
    viewBox="0 0 94 124"
    fill="none"
    xmlns="http://www.w3.org/2000/svg"
  >
    <path
      d="M26.18 30.21C25.68 30.21 25.29 30.07 25.01 29.79C24.75 29.51 24.62 29.12 24.62 28.62V11.46H18.26C17.84 11.46 17.51 11.35 17.27 11.13C17.03 10.89 16.91 10.56 16.91 10.14C16.91 9.72 17.03 9.4 17.27 9.18C17.51 8.96 17.84 8.85 18.26 8.85H34.07C34.51 8.85 34.85 8.96 35.09 9.18C35.33 9.4 35.45 9.72 35.45 10.14C35.45 10.56 35.33 10.89 35.09 11.13C34.85 11.35 34.51 11.46 34.07 11.46H27.71V28.62C27.71 29.12 27.58 29.51 27.32 29.79C27.08 30.07 26.7 30.21 26.18 30.21ZM45.6615 30.27C43.6615 30.27 41.9115 29.83 40.4115 28.95C38.9315 28.05 37.7815 26.79 36.9615 25.17C36.1615 23.53 35.7615 21.61 35.7615 19.41C35.7615 17.75 35.9915 16.26 36.4515 14.94C36.9115 13.6 37.5715 12.46 38.4315 11.52C39.2915 10.56 40.3315 9.83 41.5515 9.33C42.7715 8.83 44.1415 8.58 45.6615 8.58C47.6815 8.58 49.4315 9.02 50.9115 9.9C52.3915 10.78 53.5315 12.03 54.3315 13.65C55.1515 15.27 55.5615 17.18 55.5615 19.38C55.5615 21.04 55.3315 22.54 54.8715 23.88C54.4115 25.22 53.7415 26.37 52.8615 27.33C52.0015 28.29 50.9615 29.02 49.7415 29.52C48.5215 30.02 47.1615 30.27 45.6615 30.27ZM45.6615 27.57C47.0615 27.57 48.2515 27.25 49.2315 26.61C50.2315 25.97 50.9915 25.04 51.5115 23.82C52.0515 22.6 52.3215 21.13 52.3215 19.41C52.3215 16.83 51.7415 14.83 50.5815 13.41C49.4215 11.99 47.7815 11.28 45.6615 11.28C44.2615 11.28 43.0615 11.6 42.0615 12.24C41.0815 12.86 40.3215 13.78 39.7815 15C39.2615 16.22 39.0015 17.69 39.0015 19.41C39.0015 21.97 39.5815 23.97 40.7415 25.41C41.9215 26.85 43.5615 27.57 45.6615 27.57ZM61.3032 30.21C60.8032 30.21 60.4132 30.07 60.1332 29.79C59.8732 29.51 59.7432 29.12 59.7432 28.62V10.44C59.7432 9.92 59.8832 9.53 60.1632 9.27C60.4432 8.99 60.8332 8.85 61.3332 8.85H68.5032C70.7832 8.85 72.5432 9.42 73.7832 10.56C75.0232 11.68 75.6432 13.26 75.6432 15.3C75.6432 17.36 75.0232 18.96 73.7832 20.1C72.5432 21.22 70.7832 21.78 68.5032 21.78H62.8632V28.62C62.8632 29.12 62.7332 29.51 62.4732 29.79C62.2132 30.07 61.8232 30.21 61.3032 30.21ZM62.8632 19.29H68.0532C69.5532 19.29 70.6832 18.96 71.4432 18.3C72.2232 17.62 72.6132 16.62 72.6132 15.3C72.6132 14 72.2232 13.02 71.4432 12.36C70.6832 11.68 69.5532 11.34 68.0532 11.34H62.8632V19.29Z"
      fill="#A9D9D0"
    />
    <path
      d="M11.75 41.75L82.25 41.75"
      stroke="#A9D9D0"
      stroke-width="2"
      stroke-linecap="round"
      stroke-linejoin="round"
    />
    <path
      d="M47 112.25V59.375"
      stroke="#A9D9D0"
      stroke-width="2"
      stroke-linecap="round"
      stroke-linejoin="round"
    />
    <path
      d="M62.6663 73.0834L46.9997 57.4167L31.333 73.0834"
      stroke="#A9D9D0"
      stroke-width="2"
      stroke-linecap="round"
      stroke-linejoin="round"
    />
  </svg>