<svg width="64" height="64" viewBox="0 0 64 64" fill="none" xmlns="http://www.w3.org/2000/svg">
<path d="M52.8914 10H12.1086C10.944 10 10 10.9231 10 12.0617V51.9383C10 53.0769 10.944 54 12.1086 54H52.8914C54.056 54 55 53.0769 55 51.9383V12.0617C55 10.9231 54.056 10 52.8914 10Z" fill="#A9D9D0"/>
<path fill-rule="evenodd" clip-rule="evenodd" d="M35.3221 44.0681V48.8135C36.1972 49.239 37.1299 49.5386 38.0915 49.7029C39.2028 49.905 40.3308 50.0044 41.4608 49.9998C42.5621 50.005 43.6609 49.8956 44.739 49.6735C45.7068 49.4808 46.6303 49.1137 47.4629 48.5908C48.2359 48.0992 48.873 47.4264 49.3171 46.6326C50.1125 44.9889 50.2174 43.1025 49.6091 41.383C49.3524 40.74 48.9699 40.153 48.4834 39.6553C47.9612 39.1261 47.368 38.6698 46.7203 38.2989C45.9746 37.8686 45.1998 37.4893 44.4014 37.1636C43.7734 36.9068 43.2082 36.6573 42.7058 36.4149C42.2596 36.2045 41.8325 35.9566 41.4294 35.6741C41.1136 35.456 40.8394 35.1848 40.6193 34.8729C40.4291 34.5897 40.33 34.2565 40.3351 33.917C40.3309 33.6045 40.4193 33.2976 40.5894 33.0338C40.7742 32.7578 41.0207 32.5271 41.3101 32.3594C41.6637 32.1543 42.0486 32.0065 42.4499 31.9217C42.9426 31.8139 43.4461 31.762 43.9508 31.767C44.3752 31.7685 44.7991 31.7984 45.2194 31.8567C45.6732 31.9172 46.1223 32.0087 46.5633 32.1305C47.0119 32.253 47.4506 32.4081 47.8758 32.5945C48.2885 32.7758 48.6832 32.9943 49.0549 33.2473V28.819C48.2811 28.5306 47.4785 28.3232 46.6606 28.2003C45.6729 28.0587 44.6757 27.992 43.6776 28.0008C42.5867 27.995 41.4989 28.117 40.4371 28.3642C39.4775 28.5803 38.5649 28.9643 37.743 29.498C36.9795 29.9991 36.349 30.6732 35.9045 31.4639C35.4335 32.3419 35.2004 33.3248 35.2279 34.3176C35.1931 35.6304 35.632 36.9129 36.4666 37.9369C37.4905 39.0723 38.7817 39.9428 40.2268 40.472C40.8862 40.7401 41.5011 41.0025 42.0715 41.2593C42.5862 41.4849 43.0809 41.7524 43.5505 42.0589C43.9292 42.3017 44.2618 42.6079 44.5333 42.9638C44.7719 43.2866 44.8986 43.6766 44.8944 44.0759C44.8965 44.3751 44.8186 44.6696 44.6683 44.9297C44.5013 45.2091 44.2667 45.4435 43.9853 45.6118C43.6333 45.8232 43.2481 45.9758 42.8455 46.0634C42.321 46.1789 41.7846 46.2334 41.2473 46.2258C40.1927 46.2239 39.1465 46.0407 38.1559 45.6845C37.121 45.3165 36.1612 44.7691 35.3221 44.0681ZM27.2302 32.2543H33.5103V28.3457H16V32.2543H22.2518V49.6611H27.2302V32.2543Z" fill="#252525"/>
</svg>
